<svg width="21" height="21" viewBox="0 0 21 21" fill="none" xmlns="http://www.w3.org/2000/svg">
<path d="M10.5 21C9.05489 21 7.69378 20.7239 6.41667 20.1717C5.13956 19.6194 4.02733 18.8689 3.08 17.92C2.13111 16.9734 1.38056 15.8612 0.828333 14.5833C0.276111 13.3062 0 11.9451 0 10.5C0 9.051 0.276111 7.68872 0.828333 6.41317C1.38133 5.13761 2.13189 4.02617 3.08 3.07883C4.02656 2.1315 5.13878 1.38172 6.41667 0.8295C7.69378 0.2765 9.05489 0 10.5 0C11.949 0 13.3113 0.276111 14.5868 0.828333C15.8624 1.38133 16.9738 2.13189 17.9212 3.08C18.8685 4.02733 19.6183 5.13839 20.1705 6.41317C20.7235 7.68872 21 9.051 21 10.5C21 11.9451 20.7239 13.3062 20.1717 14.5833C19.6194 15.8604 18.8689 16.9727 17.92 17.92C16.9727 18.8681 15.8616 19.6187 14.5868 20.1717C13.3113 20.7239 11.949 21 10.5 21ZM10.5 19.8427C11.1844 18.963 11.7491 18.0993 12.194 17.2515C12.6381 16.4037 12.9994 15.4548 13.2778 14.4048H7.72217C8.03017 15.5139 8.39883 16.4924 8.82817 17.3402C9.2575 18.1879 9.81478 19.0221 10.5 19.8427ZM9.01483 19.6677C8.47039 19.026 7.97339 18.2327 7.52383 17.2877C7.07428 16.3434 6.73983 15.3821 6.5205 14.4037H2.04517C2.71406 15.855 3.66178 17.045 4.88833 17.9737C6.11567 18.9023 7.49078 19.467 9.01367 19.6677H9.01483ZM11.9852 19.6677C13.5081 19.467 14.8832 18.9023 16.1105 17.9737C17.3378 17.045 18.2856 15.855 18.9537 14.4037H14.4807C14.1851 15.3969 13.8129 16.366 13.3642 17.311C12.9146 18.2552 12.4549 19.0408 11.9852 19.6677ZM1.57033 13.237H6.27783C6.18917 12.7587 6.12694 12.2924 6.09117 11.8382C6.05383 11.3839 6.03517 10.9379 6.03517 10.5C6.03517 10.0621 6.05344 9.61605 6.09 9.16183C6.12656 8.70761 6.18878 8.24094 6.27667 7.76183H1.5715C1.44472 8.16628 1.34556 8.60689 1.274 9.08367C1.20244 9.56044 1.16667 10.0326 1.16667 10.5C1.16667 10.9682 1.20206 11.4403 1.27283 11.9163C1.34439 12.3931 1.44356 12.8333 1.57033 13.237ZM7.4445 13.237H13.5555C13.6442 12.7587 13.7064 12.2998 13.7422 11.8603C13.7795 11.4217 13.7982 10.9682 13.7982 10.5C13.7982 10.0318 13.7799 9.57833 13.7433 9.13967C13.7068 8.70022 13.6446 8.24133 13.5567 7.763H7.44333C7.35544 8.24133 7.29322 8.70022 7.25667 9.13967C7.22011 9.57833 7.20183 10.0318 7.20183 10.5C7.20183 10.9682 7.22011 11.4217 7.25667 11.8603C7.29322 12.2998 7.35661 12.7587 7.4445 13.237ZM14.7222 13.237H19.4297C19.5564 12.8326 19.6556 12.3923 19.7272 11.9163C19.7987 11.4403 19.8341 10.9682 19.8333 10.5C19.8333 10.0318 19.7979 9.55967 19.7272 9.08367C19.6556 8.60689 19.5564 8.16667 19.4297 7.763H14.7222C14.8108 8.24133 14.8731 8.70761 14.9088 9.16183C14.9462 9.61605 14.9648 10.0621 14.9648 10.5C14.9648 10.9379 14.9466 11.3839 14.91 11.8382C14.8734 12.2924 14.8112 12.7591 14.7233 13.2382L14.7222 13.237ZM14.4807 6.59633H18.9537C18.27 5.11544 17.3336 3.92544 16.1443 3.02633C14.9543 2.12722 13.5679 1.55556 11.9852 1.31133C12.5296 2.02689 13.0192 2.84589 13.454 3.76833C13.888 4.69 14.2302 5.63267 14.4807 6.59633ZM7.72217 6.59633H13.2778C12.9698 5.50122 12.5899 4.51111 12.138 3.626C11.6869 2.74011 11.1409 1.91722 10.5 1.15733C9.85989 1.91722 9.31389 2.74011 8.862 3.626C8.41089 4.51111 8.03094 5.50122 7.72217 6.59633ZM2.04633 6.59633H6.51933C6.76978 5.63267 7.112 4.69 7.546 3.76833C7.98078 2.84589 8.47039 2.0265 9.01483 1.31017C7.41728 1.55517 6.02739 2.13072 4.84517 3.03683C3.66294 3.94372 2.72961 5.12983 2.04517 6.59517L2.04633 6.59633Z" fill="black"/>
</svg>
