<svg width="20" height="16" viewBox="0 0 20 16" fill="none" xmlns="http://www.w3.org/2000/svg">
<path d="M13 12H16C16.2833 12 16.5208 11.9042 16.7125 11.7125C16.9042 11.5208 17 11.2833 17 11V5C17 4.71667 16.9042 4.47917 16.7125 4.2875C16.5208 4.09583 16.2833 4 16 4H13C12.7167 4 12.4792 4.09583 12.2875 4.2875C12.0958 4.47917 12 4.71667 12 5V11C12 11.2833 12.0958 11.5208 12.2875 11.7125C12.4792 11.9042 12.7167 12 13 12ZM14 10V6H15V10H14ZM7 12H10C10.2833 12 10.5208 11.9042 10.7125 11.7125C10.9042 11.5208 11 11.2833 11 11V5C11 4.71667 10.9042 4.47917 10.7125 4.2875C10.5208 4.09583 10.2833 4 10 4H7C6.71667 4 6.47917 4.09583 6.2875 4.2875C6.09583 4.47917 6 4.71667 6 5V11C6 11.2833 6.09583 11.5208 6.2875 11.7125C6.47917 11.9042 6.71667 12 7 12ZM8 10V6H9V10H8ZM3 12H5V4H3V12ZM0 16V0H20V16H0Z" fill="#1A88E1"/>
</svg>
