<svg width="21" height="21" viewBox="0 0 21 21" fill="none" xmlns="http://www.w3.org/2000/svg">
<path d="M10.5 0C11.3122 0 12.0912 0.53405 12.6655 1.48467C13.2398 2.43528 13.5625 3.72459 13.5625 5.06897C13.5625 6.41334 13.2398 7.70265 12.6655 8.65326C12.0912 9.60388 11.3122 10.1379 10.5 10.1379C9.68777 10.1379 8.90882 9.60388 8.33449 8.65326C7.76016 7.70265 7.4375 6.41334 7.4375 5.06897C7.4375 3.72459 7.76016 2.43528 8.33449 1.48467C8.90882 0.53405 9.68777 0 10.5 0ZM4.375 3.62069C4.865 3.62069 5.32 3.83793 5.71375 4.22897C5.5825 6.3 5.95 8.35655 6.7025 9.96414C6.265 11.3545 5.39 12.3103 4.375 12.3103C3.67881 12.3103 3.01113 11.8526 2.51884 11.0378C2.02656 10.223 1.75 9.11784 1.75 7.96552C1.75 6.8132 2.02656 5.70807 2.51884 4.89326C3.01113 4.07845 3.67881 3.62069 4.375 3.62069ZM16.625 3.62069C17.3212 3.62069 17.9889 4.07845 18.4812 4.89326C18.9734 5.70807 19.25 6.8132 19.25 7.96552C19.25 9.11784 18.9734 10.223 18.4812 11.0378C17.9889 11.8526 17.3212 12.3103 16.625 12.3103C15.61 12.3103 14.735 11.3545 14.2975 9.96414C15.0604 8.33399 15.4145 6.28001 15.2862 4.22897C15.68 3.83793 16.135 3.62069 16.625 3.62069ZM4.8125 18.4655C4.8125 15.4676 7.35875 13.0345 10.5 13.0345C13.6412 13.0345 16.1875 15.4676 16.1875 18.4655V21H4.8125V18.4655ZM0 21V18.8276C0 16.8145 1.65375 15.12 3.89375 14.6276C3.3775 15.6124 3.0625 16.9738 3.0625 18.4655V21H0ZM21 21H17.9375V18.4655C17.9375 16.9738 17.6225 15.6124 17.1062 14.6276C19.3462 15.12 21 16.8145 21 18.8276V21Z" fill="#1A88E1"/>
</svg>
