<svg width="21" height="21" viewBox="0 0 21 21" fill="none" xmlns="http://www.w3.org/2000/svg">
<path d="M18.9 0C19.457 0 19.9911 0.276562 20.3849 0.768845C20.7787 1.26113 21 1.92881 21 2.625V18.375C21 19.0712 20.7787 19.7389 20.3849 20.2312C19.9911 20.7234 19.457 21 18.9 21H2.1C1.54305 21 1.0089 20.7234 0.615076 20.2312C0.221249 19.7389 0 19.0712 0 18.375V2.625C0 1.92881 0.221249 1.26113 0.615076 0.768845C1.0089 0.276562 1.54305 0 2.1 0H18.9ZM18.9 18.375V2.625H2.1V18.375H18.9ZM4.2 7.875H6.3V10.5H4.2V7.875ZM4.2 13.125H12.6V15.75H4.2V13.125ZM14.7 13.125H16.8V15.75H14.7V13.125ZM8.4 7.875H16.8V10.5H8.4V7.875Z" fill="black"/>
</svg>
