<svg width="21" height="21" viewBox="0 0 21 21" fill="none" xmlns="http://www.w3.org/2000/svg">
<path d="M20.8148 11.55L19.6388 12.7853L17.2281 10.2529L18.404 9.01765C18.5249 8.89316 18.6875 8.82343 18.8568 8.82343C19.0261 8.82343 19.1886 8.89316 19.3095 9.01765L20.8148 10.5988C21.0617 10.8582 21.0617 11.2906 20.8148 11.55ZM9.40781 18.4553L16.5342 10.9694L18.945 13.5018L11.8303 21H9.40781V18.4553ZM9.40781 12.3529C4.21 12.3529 0 14.5641 0 17.2941V19.7647H7.05586V17.43L11.7598 12.4888C10.9836 12.39 10.1957 12.3529 9.40781 12.3529ZM9.40781 0C8.16026 0 6.9638 0.520587 6.08165 1.44724C5.19949 2.37389 4.70391 3.63069 4.70391 4.94118C4.70391 6.25166 5.19949 7.50847 6.08165 8.43512C6.9638 9.36177 8.16026 9.88235 9.40781 9.88235C10.6554 9.88235 11.8518 9.36177 12.734 8.43512C13.6161 7.50847 14.1117 6.25166 14.1117 4.94118C14.1117 3.63069 13.6161 2.37389 12.734 1.44724C11.8518 0.520587 10.6554 0 9.40781 0Z" fill="black"/>
</svg>
