<svg width="21" height="21" viewBox="0 0 21 21" fill="none" xmlns="http://www.w3.org/2000/svg">
<path d="M10.5 2.1C9.41703 2.1 8.37842 2.48719 7.61265 3.17638C6.84687 3.86558 6.41667 4.80033 6.41667 5.775C6.41667 6.74967 6.84687 7.68442 7.61265 8.37362C8.37842 9.06281 9.41703 9.45 10.5 9.45C11.583 9.45 12.6216 9.06281 13.3874 8.37362C14.1531 7.68442 14.5833 6.74967 14.5833 5.775C14.5833 4.80033 14.1531 3.86558 13.3874 3.17638C12.6216 2.48719 11.583 2.1 10.5 2.1ZM4.08333 5.775C4.08333 4.24337 4.75937 2.77448 5.96273 1.69146C7.16609 0.608436 8.79819 0 10.5 0C12.2018 0 13.8339 0.608436 15.0373 1.69146C16.2406 2.77448 16.9167 4.24337 16.9167 5.775C16.9167 7.30662 16.2406 8.77552 15.0373 9.85854C13.8339 10.9416 12.2018 11.55 10.5 11.55C8.79819 11.55 7.16609 10.9416 5.96273 9.85854C4.75937 8.77552 4.08333 7.30662 4.08333 5.775ZM0 17.85C0 16.4576 0.614582 15.1223 1.70854 14.1377C2.80251 13.1531 4.28624 12.6 5.83333 12.6H15.1667C16.7138 12.6 18.1975 13.1531 19.2915 14.1377C20.3854 15.1223 21 16.4576 21 17.85V21H0V17.85ZM5.83333 14.7C4.90508 14.7 4.01484 15.0319 3.35846 15.6226C2.70208 16.2134 2.33333 17.0146 2.33333 17.85V18.9H18.6667V17.85C18.6667 17.0146 18.2979 16.2134 17.6415 15.6226C16.9852 15.0319 16.0949 14.7 15.1667 14.7H5.83333Z" fill="#1A88E1"/>
</svg>
